M48
;Layer_Color=9474304
;FILE_FORMAT=4:4
METRIC,LZ
;TYPE=PLATED
T01F00S00C0.3000
T02F00S00C1.0700
%
T01
X0004Y00031
X0008
X0012
X0016
X002Y00018508
X0024Y0001851
X00230105Y00053508
X00267106Y0005351
X0028Y00031
X0032
Y00097
X0028
X0024
X002
X0016
X0012
X0008
X0004Y00097
X00020106Y00064508
X00333106Y0006451
T02
X00044Y000503
Y000757
X00309
Y000503
M30
