G04*
G04 #@! TF.GenerationSoftware,Altium Limited,Altium Designer,24.5.2 (23)*
G04*
G04 Layer_Color=65535*
%FSLAX44Y44*%
%MOMM*%
G71*
G04*
G04 #@! TF.SameCoordinates,4309D094-1623-4971-8B46-4853FF26598F*
G04*
G04*
G04 #@! TF.FilePolarity,Positive*
G04*
G01*
G75*
%ADD10C,0.2000*%
%ADD11C,0.2540*%
%ADD12R,1.8800X0.4300*%
%ADD13R,1.9100X0.0100*%
D10*
X194000Y26826D02*
X194076Y26750D01*
X223937D02*
X224000Y26813D01*
X194076Y26750D02*
X223937D01*
X224000Y26813D02*
Y49250D01*
X194107D02*
X224000D01*
X194000Y49143D02*
X194107Y49250D01*
X194000Y26826D02*
Y49143D01*
X194000Y56826D02*
Y79143D01*
X194107Y79250D01*
X224000D01*
Y56813D02*
Y79250D01*
X194076Y56750D02*
X223937D01*
X224000Y56813D01*
X194000Y56826D02*
X194076Y56750D01*
X122826Y73000D02*
X145143D01*
X145250Y72893D01*
Y43000D02*
Y72893D01*
X122813Y43000D02*
X145250D01*
X122750Y43063D02*
Y72924D01*
Y43063D02*
X122813Y43000D01*
X122750Y72924D02*
X122826Y73000D01*
X238250Y92500D02*
X259638D01*
X259750Y92388D01*
X238250Y63503D02*
Y92500D01*
Y63503D02*
X238253Y63500D01*
X259750Y63508D02*
Y92388D01*
X259742Y63500D02*
X259750Y63508D01*
X238253Y63500D02*
X259742D01*
X92750Y63000D02*
X115250D01*
Y93000D01*
X92750Y63000D02*
Y93000D01*
X115250D01*
X239250Y24000D02*
Y57300D01*
Y24000D02*
X258750D01*
Y57300D01*
X239327Y28300D02*
X258750D01*
X239250Y28577D02*
X239327Y28500D01*
X258750D01*
X239250Y57500D02*
X258750D01*
X94250Y57500D02*
X113750D01*
X94250Y28577D02*
X94327Y28500D01*
X113750D01*
Y24200D02*
Y57500D01*
X94250Y24200D02*
X113750D01*
X94250D02*
Y57500D01*
X63300Y49841D02*
X78300Y49700D01*
X63300Y75559D02*
X78300Y75700D01*
X63300Y49841D02*
Y75559D01*
X274700Y76300D02*
X289700Y76159D01*
X274700Y50300D02*
X289700Y50441D01*
Y76159D01*
X150000Y37000D02*
X188000D01*
X150000D02*
Y69000D01*
X188000D01*
Y37000D02*
Y69000D01*
X304000Y16000D02*
Y25997D01*
Y19332D02*
X308998Y22664D01*
X304000Y19332D02*
X308998Y16000D01*
X313997D02*
X317329D01*
X315663D01*
Y22664D01*
X313997D01*
X322327D02*
Y16000D01*
Y19332D01*
X323994Y20998D01*
X325660Y22664D01*
X327326D01*
X333990D02*
X337323D01*
X338989Y20998D01*
Y16000D01*
X333990D01*
X332324Y17666D01*
X333990Y19332D01*
X338989D01*
X346000Y75000D02*
X349332D01*
X347666D01*
Y84997D01*
X346000Y83331D01*
X3300Y40000D02*
X6632D01*
X4966D01*
Y49997D01*
X3300Y48331D01*
X156000Y74000D02*
X159332D01*
X157666D01*
Y83997D01*
X156000Y82331D01*
X165336Y30998D02*
Y22668D01*
X167002Y21002D01*
X170334D01*
X172000Y22668D01*
Y30998D01*
X175332Y21002D02*
X178664D01*
X176998D01*
Y30998D01*
X175332Y29332D01*
X245669Y98002D02*
Y107998D01*
X250668D01*
X252334Y106332D01*
Y103000D01*
X250668Y101334D01*
X245669D01*
X249002D02*
X252334Y98002D01*
X262331D02*
X255666D01*
X262331Y104666D01*
Y106332D01*
X260665Y107998D01*
X257332D01*
X255666Y106332D01*
X97336Y98002D02*
Y107998D01*
X102334D01*
X104000Y106332D01*
Y103000D01*
X102334Y101334D01*
X97336D01*
X100668D02*
X104000Y98002D01*
X107332D02*
X110665D01*
X108998D01*
Y107998D01*
X107332Y106332D01*
X331334Y102998D02*
X328002D01*
X329668D01*
Y94668D01*
X328002Y93002D01*
X326335D01*
X324669Y94668D01*
X341331Y93002D02*
X334666D01*
X341331Y99666D01*
Y101332D01*
X339664Y102998D01*
X336332D01*
X334666Y101332D01*
X24000Y102998D02*
X20668D01*
X22334D01*
Y94668D01*
X20668Y93002D01*
X19002D01*
X17335Y94668D01*
X27332Y93002D02*
X30665D01*
X28998D01*
Y102998D01*
X27332Y101332D01*
X245669Y17998D02*
Y8002D01*
X250668D01*
X252334Y9668D01*
Y16332D01*
X250668Y17998D01*
X245669D01*
X262331Y8002D02*
X255666D01*
X262331Y14666D01*
Y16332D01*
X260665Y17998D01*
X257332D01*
X255666Y16332D01*
X97336Y17998D02*
Y8002D01*
X102334D01*
X104000Y9668D01*
Y16332D01*
X102334Y17998D01*
X97336D01*
X107332Y8002D02*
X110665D01*
X108998D01*
Y17998D01*
X107332Y16332D01*
X212334Y93332D02*
X210668Y94998D01*
X207335D01*
X205669Y93332D01*
Y86668D01*
X207335Y85002D01*
X210668D01*
X212334Y86668D01*
X215666Y93332D02*
X217332Y94998D01*
X220665D01*
X222331Y93332D01*
Y91666D01*
X220665Y90000D01*
X218998D01*
X220665D01*
X222331Y88334D01*
Y86668D01*
X220665Y85002D01*
X217332D01*
X215666Y86668D01*
X132334Y36332D02*
X130668Y37998D01*
X127336D01*
X125669Y36332D01*
Y29668D01*
X127336Y28002D01*
X130668D01*
X132334Y29668D01*
X142331Y28002D02*
X135666D01*
X142331Y34666D01*
Y36332D01*
X140665Y37998D01*
X137332D01*
X135666Y36332D01*
X214000Y19332D02*
X212334Y20998D01*
X209002D01*
X207335Y19332D01*
Y12668D01*
X209002Y11002D01*
X212334D01*
X214000Y12668D01*
X217332Y11002D02*
X220665D01*
X218998D01*
Y20998D01*
X217332Y19332D01*
D11*
X78300Y38030D02*
Y87900D01*
X78230Y87970D02*
X78300Y87900D01*
X14700Y38030D02*
X78300D01*
X14700Y87970D02*
X78230D01*
X14700Y38030D02*
Y87970D01*
X274700Y38100D02*
Y87970D01*
Y38100D02*
X274770Y38030D01*
X274700Y87970D02*
X338300D01*
X274770Y38030D02*
X338300D01*
Y87970D01*
D12*
X249000Y26050D02*
D03*
X104000Y26250D02*
D03*
D13*
X103850Y28450D02*
D03*
M02*
