G04*
G04 #@! TF.GenerationSoftware,Altium Limited,Altium Designer,24.5.2 (23)*
G04*
G04 Layer_Physical_Order=1*
G04 Layer_Color=255*
%FSLAX44Y44*%
%MOMM*%
G71*
G04*
G04 #@! TF.SameCoordinates,4309D094-1623-4971-8B46-4853FF26598F*
G04*
G04*
G04 #@! TF.FilePolarity,Positive*
G04*
G01*
G75*
%ADD14R,0.7500X1.4500*%
%ADD15R,1.4500X0.7500*%
%ADD16R,1.3500X0.5500*%
%ADD17R,1.4500X0.5000*%
%ADD18R,1.1500X0.5500*%
%ADD19R,0.6250X0.5000*%
%ADD28C,0.5000*%
%ADD29O,2.0000X1.6000*%
%ADD30R,2.0000X1.6000*%
%ADD31C,0.6000*%
G36*
X344000Y10000D02*
X10000D01*
Y58202D01*
Y70815D01*
Y106000D01*
X344000D01*
Y10000D01*
D02*
G37*
%LPC*%
G36*
X130500Y92108D02*
X57120D01*
X54974Y91681D01*
X53155Y90465D01*
X49038Y86348D01*
X48872Y86417D01*
X46000Y86795D01*
X42000D01*
X41869Y86778D01*
D01*
X39128Y86417D01*
D01*
X36453Y85309D01*
X34155Y83545D01*
X32392Y81247D01*
X31283Y78572D01*
X30905Y75700D01*
X31283Y72828D01*
X32392Y70153D01*
X34155Y67855D01*
X36453Y66091D01*
X37060Y65840D01*
X36065Y60840D01*
X31460D01*
Y51570D01*
X44000D01*
X56540D01*
Y60840D01*
X51935D01*
X50940Y65840D01*
X51547Y66091D01*
X53845Y67855D01*
X55609Y70153D01*
X56717Y72828D01*
X57095Y75700D01*
X56933Y76932D01*
X60551Y80892D01*
X128177D01*
X128392Y80677D01*
Y72000D01*
X123750D01*
Y61849D01*
X123750Y58500D01*
X124210Y53691D01*
Y52020D01*
X134000D01*
X143790D01*
Y53211D01*
D01*
X145070Y54336D01*
X148553Y56091D01*
X151460Y54657D01*
Y54270D01*
X157125D01*
Y51730D01*
X151460D01*
Y49000D01*
X151000D01*
Y38000D01*
X156583D01*
X157125Y37892D01*
X166071D01*
X168217Y38319D01*
X169750Y39344D01*
X172294Y38800D01*
X174750Y38000D01*
X175573Y38000D01*
X180333D01*
X180875Y37892D01*
X186177D01*
X190035Y34035D01*
X191854Y32819D01*
X194000Y32392D01*
X195000D01*
Y27750D01*
X205126D01*
D01*
X208500Y27750D01*
X213309Y28210D01*
X214980D01*
Y38000D01*
Y44460D01*
Y47790D01*
X213309D01*
X208500Y48250D01*
X205151Y48250D01*
X195000D01*
X195000Y48250D01*
X190214Y48767D01*
X188500Y49108D01*
X180875D01*
X180333Y49000D01*
X177583D01*
X175378Y53000D01*
D01*
D01*
X177583Y57000D01*
X180333D01*
X180875Y56892D01*
X188500D01*
X190214Y57233D01*
X195000Y57750D01*
Y57750D01*
X205151D01*
X208500Y57750D01*
X213309Y58210D01*
D01*
X214980D01*
D01*
Y68000D01*
X216250D01*
Y69270D01*
D01*
X222540D01*
Y75142D01*
X222540Y77790D01*
X226566Y80142D01*
D01*
D01*
X237179D01*
X239250Y76000D01*
X239250Y75000D01*
Y64500D01*
X243392D01*
Y56500D01*
X240250D01*
Y50457D01*
D01*
Y45349D01*
D01*
X240250Y45000D01*
X240710Y40191D01*
Y36520D01*
X249000D01*
X257290D01*
Y40191D01*
X257750Y45000D01*
X257750Y45349D01*
Y48554D01*
Y56500D01*
X254608D01*
Y64500D01*
X258750D01*
Y75000D01*
X258750Y76000D01*
X260821Y80142D01*
X273927D01*
X282335Y71735D01*
X284154Y70519D01*
X286300Y70092D01*
X296000D01*
Y64700D01*
X301157D01*
X302151Y59700D01*
X301685Y59507D01*
X299483Y57817D01*
X297793Y55616D01*
X296731Y53052D01*
X296536Y51570D01*
X321464D01*
X321269Y53052D01*
X320207Y55616D01*
X318517Y57817D01*
X316315Y59507D01*
X315849Y59700D01*
X316843Y64700D01*
X322000D01*
Y86700D01*
X296000D01*
Y81308D01*
X288623D01*
X283068Y86862D01*
X280215Y89715D01*
X278396Y90931D01*
X276250Y91358D01*
X258750D01*
Y91500D01*
X239250D01*
Y91358D01*
X204679D01*
X202533Y90931D01*
X200714Y89715D01*
X197839Y86841D01*
D01*
X197785Y86786D01*
X196569Y84967D01*
X196142Y82821D01*
Y78250D01*
X195000D01*
Y73608D01*
X194000D01*
X191854Y73181D01*
X190035Y71965D01*
X186177Y68108D01*
X180875D01*
X180333Y68000D01*
X174750Y68000D01*
X172294Y67200D01*
X169750Y66657D01*
X168217Y67681D01*
X166071Y68108D01*
X153823D01*
X152715Y69215D01*
X150896Y70431D01*
X148750Y70858D01*
X144250D01*
Y72000D01*
X139608D01*
Y83000D01*
X139181Y85146D01*
X137965Y86965D01*
X134465Y90465D01*
X132646Y91681D01*
X130500Y92108D01*
D02*
G37*
G36*
X222540Y66730D02*
X217520D01*
Y60840D01*
Y58210D01*
X220645D01*
D01*
X222540D01*
Y60849D01*
Y60849D01*
Y66730D01*
D02*
G37*
G36*
X143790Y49480D02*
X135270D01*
Y44460D01*
X143790D01*
Y49480D01*
D02*
G37*
G36*
X132730D02*
X124210D01*
Y44460D01*
X132730D01*
Y49480D01*
D02*
G37*
G36*
X56540Y49030D02*
X45270D01*
Y39760D01*
X56540D01*
Y49030D01*
D02*
G37*
G36*
X42730D02*
X31460D01*
Y39760D01*
X42730D01*
Y49030D01*
D02*
G37*
G36*
X321464Y49030D02*
X310270D01*
Y39669D01*
X311000D01*
X313752Y40031D01*
X316315Y41093D01*
X318517Y42783D01*
X320207Y44984D01*
X321269Y47548D01*
X321464Y49030D01*
D02*
G37*
G36*
X307730D02*
X296536D01*
X296731Y47548D01*
X297793Y44984D01*
X299483Y42783D01*
X301685Y41093D01*
X304249Y40031D01*
X307000Y39669D01*
X307730D01*
Y49030D01*
D02*
G37*
G36*
X217520Y47790D02*
Y39270D01*
X222540D01*
Y46168D01*
Y47790D01*
X221456D01*
D01*
X217520D01*
D02*
G37*
G36*
X104000Y75108D02*
X103458Y75000D01*
X93750D01*
Y64000D01*
X98392D01*
Y56500D01*
X95250D01*
Y45349D01*
X95250Y45000D01*
X95710Y40191D01*
Y36520D01*
X104000D01*
X112290D01*
Y38196D01*
Y38196D01*
Y40191D01*
D01*
X112750Y45000D01*
X112750Y45349D01*
Y56500D01*
X109608D01*
Y64000D01*
X114250D01*
Y75000D01*
X104542D01*
X104000Y75108D01*
D02*
G37*
G36*
X112290Y33980D02*
X105270D01*
Y32270D01*
Y29960D01*
X112290D01*
Y33980D01*
D02*
G37*
G36*
X102730D02*
X95710D01*
Y29960D01*
X102730D01*
Y33980D01*
D02*
G37*
G36*
X257290Y33980D02*
X250270D01*
Y29960D01*
X257290D01*
Y33980D01*
D02*
G37*
G36*
X247730D02*
X240710D01*
Y29960D01*
X247730D01*
Y33980D01*
D02*
G37*
G36*
X222540Y36730D02*
X217520D01*
Y28210D01*
X222540D01*
Y36730D01*
D02*
G37*
%LPD*%
D14*
X216250Y38000D02*
D03*
X201750D02*
D03*
X201750Y68000D02*
D03*
X216250D02*
D03*
D15*
X134000Y65250D02*
D03*
Y50750D02*
D03*
D16*
X249000Y70250D02*
D03*
Y85750D02*
D03*
D17*
X104000Y86500D02*
D03*
Y69500D02*
D03*
D18*
X249000Y50750D02*
D03*
Y35250D02*
D03*
X104000Y50750D02*
D03*
Y35250D02*
D03*
D19*
X180875Y62500D02*
D03*
Y43500D02*
D03*
X157125D02*
D03*
Y53000D02*
D03*
Y62500D02*
D03*
D28*
X276250Y85750D02*
X286300Y75700D01*
X249000Y85750D02*
X276250D01*
X286300Y75700D02*
X309000D01*
X249000Y70250D02*
X249000Y70250D01*
Y50750D02*
Y70250D01*
X201750Y68000D02*
X201750Y68000D01*
X201750Y82821D02*
X204679Y85750D01*
X249000D01*
X201750Y68000D02*
Y82821D01*
X194000Y38000D02*
X201750D01*
X188500Y43500D02*
X194000Y38000D01*
X180875Y43500D02*
X188500D01*
X180875Y62500D02*
X188500D01*
X194000Y68000D01*
X201750D01*
X166071Y62500D02*
X169000Y59571D01*
X157125Y43500D02*
X166071D01*
X169000Y46429D01*
X151500Y62500D02*
X166071D01*
X169000Y46429D02*
Y59571D01*
X148750Y65250D02*
X151500Y62500D01*
X134000Y65250D02*
X148750D01*
X134000D02*
Y83000D01*
X130500Y86500D02*
X134000Y83000D01*
X104000Y86500D02*
X130500D01*
X104000Y50750D02*
Y69500D01*
X44000Y50300D02*
X46000D01*
X44000Y75700D02*
X46320D01*
X57120Y86500D02*
X104000D01*
X46320Y75700D02*
X57120Y86500D01*
D29*
X44000Y75700D02*
D03*
X309000Y50300D02*
D03*
D30*
X44000D02*
D03*
X309000Y75700D02*
D03*
D31*
X320000Y31000D02*
D03*
Y97000D02*
D03*
X20106Y64508D02*
D03*
X333106Y64510D02*
D03*
X280000Y31000D02*
D03*
Y97000D02*
D03*
X240000D02*
D03*
Y18510D02*
D03*
X267106Y53510D02*
D03*
X230105Y53508D02*
D03*
X200000Y18508D02*
D03*
Y97000D02*
D03*
X160000Y31000D02*
D03*
Y97000D02*
D03*
X120000Y31000D02*
D03*
Y97000D02*
D03*
X80000D02*
D03*
Y31000D02*
D03*
X40000Y97000D02*
D03*
Y31000D02*
D03*
M02*
