G04*
G04 #@! TF.GenerationSoftware,Altium Limited,Altium Designer,24.5.2 (23)*
G04*
G04 Layer_Color=8388736*
%FSLAX44Y44*%
%MOMM*%
G71*
G04*
G04 #@! TF.SameCoordinates,4309D094-1623-4971-8B46-4853FF26598F*
G04*
G04*
G04 #@! TF.FilePolarity,Negative*
G04*
G01*
G75*
%ADD20R,0.9532X1.6532*%
%ADD21R,1.6532X0.9532*%
%ADD22R,1.5532X0.7532*%
%ADD23R,1.6532X0.7032*%
%ADD24R,1.3532X0.7532*%
%ADD25R,0.8282X0.7032*%
%ADD26O,2.2032X1.8032*%
%ADD27R,2.2032X1.8032*%
D20*
X216250Y38000D02*
D03*
X201750D02*
D03*
X201750Y68000D02*
D03*
X216250D02*
D03*
D21*
X134000Y65250D02*
D03*
Y50750D02*
D03*
D22*
X249000Y70250D02*
D03*
Y85750D02*
D03*
D23*
X104000Y86500D02*
D03*
Y69500D02*
D03*
D24*
X249000Y50750D02*
D03*
Y35250D02*
D03*
X104000Y50750D02*
D03*
Y35250D02*
D03*
D25*
X180875Y62500D02*
D03*
Y43500D02*
D03*
X157125D02*
D03*
Y53000D02*
D03*
Y62500D02*
D03*
D26*
X44000Y75700D02*
D03*
X309000Y50300D02*
D03*
D27*
X44000D02*
D03*
X309000Y75700D02*
D03*
M02*
