G04*
G04 #@! TF.GenerationSoftware,Altium Limited,Altium Designer,24.5.2 (23)*
G04*
G04 Layer_Color=16711935*
%FSLAX44Y44*%
%MOMM*%
G71*
G04*
G04 #@! TF.SameCoordinates,4309D094-1623-4971-8B46-4853FF26598F*
G04*
G04*
G04 #@! TF.FilePolarity,Positive*
G04*
G01*
G75*
%ADD10C,0.2000*%
%ADD11C,0.2540*%
%ADD12R,1.8800X0.4300*%
%ADD13R,1.9100X0.0100*%
%ADD32C,0.1000*%
%ADD33C,0.5080*%
D10*
X194000Y26826D02*
X194076Y26750D01*
X223937D02*
X224000Y26813D01*
X194076Y26750D02*
X223937D01*
X224000Y26813D02*
Y49250D01*
X194107D02*
X224000D01*
X194000Y49143D02*
X194107Y49250D01*
X194000Y26826D02*
Y49143D01*
X194000Y56826D02*
Y79143D01*
X194107Y79250D01*
X224000D01*
Y56813D02*
Y79250D01*
X194076Y56750D02*
X223937D01*
X224000Y56813D01*
X194000Y56826D02*
X194076Y56750D01*
X122826Y73000D02*
X145143D01*
X145250Y72893D01*
Y43000D02*
Y72893D01*
X122813Y43000D02*
X145250D01*
X122750Y43063D02*
Y72924D01*
Y43063D02*
X122813Y43000D01*
X122750Y72924D02*
X122826Y73000D01*
X259638Y92500D02*
X259750Y92388D01*
X238250Y92500D02*
X259638D01*
X238250Y63500D02*
Y92500D01*
X259750Y63595D02*
Y92388D01*
X259655Y63500D02*
X259750Y63595D01*
X238250Y63500D02*
X259655D01*
X92750Y63000D02*
X115250D01*
Y93000D01*
X92750Y63000D02*
Y93000D01*
X115250D01*
X239300Y57500D02*
X258700D01*
X239427Y28400D02*
X258600D01*
X239250Y24100D02*
Y57300D01*
X258750Y24100D02*
Y57300D01*
X239250Y24100D02*
X258750D01*
X113750Y24200D02*
Y57500D01*
X94250D02*
X113750D01*
X94250Y24200D02*
X113750D01*
X94250Y28577D02*
X94327Y28500D01*
X113750D01*
X94250Y24200D02*
Y57500D01*
X63200Y49841D02*
Y75559D01*
X78200Y75700D01*
X63200Y49841D02*
X78200Y49700D01*
X289800Y50441D02*
Y76159D01*
X274800Y50300D02*
X289800Y50441D01*
X274800Y76300D02*
X289800Y76159D01*
X160250Y37750D02*
Y68250D01*
X177750Y37750D02*
Y68250D01*
X160250D02*
X177750D01*
X160250Y37750D02*
X177750D01*
D11*
X78300Y38030D02*
Y87970D01*
X14700D02*
X78300D01*
X14700Y38030D02*
Y87970D01*
Y38030D02*
X78300D01*
X274700Y38030D02*
Y87970D01*
Y38030D02*
X338300D01*
Y87970D01*
X274700D02*
X338300D01*
D12*
X249100Y26150D02*
D03*
X104000Y26250D02*
D03*
D13*
X103850Y28450D02*
D03*
D32*
X243000Y99000D02*
Y105998D01*
X246499D01*
X247665Y104831D01*
Y102499D01*
X246499Y101333D01*
X243000D01*
X245333D02*
X247665Y99000D01*
X254663D02*
X249998D01*
X254663Y103665D01*
Y104831D01*
X253497Y105998D01*
X251164D01*
X249998Y104831D01*
X330665Y100998D02*
X328333D01*
X329499D01*
Y95166D01*
X328333Y94000D01*
X327166D01*
X326000Y95166D01*
X337663Y94000D02*
X332998D01*
X337663Y98665D01*
Y99831D01*
X336497Y100998D01*
X334164D01*
X332998Y99831D01*
X23665Y99998D02*
X21333D01*
X22499D01*
Y94166D01*
X21333Y93000D01*
X20166D01*
X19000Y94166D01*
X25998Y93000D02*
X28330D01*
X27164D01*
Y99998D01*
X25998Y98832D01*
X245000Y17998D02*
Y11000D01*
X248499D01*
X249665Y12166D01*
Y16832D01*
X248499Y17998D01*
X245000D01*
X256663Y11000D02*
X251998D01*
X256663Y15665D01*
Y16832D01*
X255497Y17998D01*
X253164D01*
X251998Y16832D01*
X209665Y19832D02*
X208499Y20998D01*
X206166D01*
X205000Y19832D01*
Y15166D01*
X206166Y14000D01*
X208499D01*
X209665Y15166D01*
X211998Y14000D02*
X214330D01*
X213164D01*
Y20998D01*
X211998Y19832D01*
X206665Y90831D02*
X205499Y91998D01*
X203166D01*
X202000Y90831D01*
Y86166D01*
X203166Y85000D01*
X205499D01*
X206665Y86166D01*
X208998Y90831D02*
X210164Y91998D01*
X212497D01*
X213663Y90831D01*
Y89665D01*
X212497Y88499D01*
X211330D01*
X212497D01*
X213663Y87333D01*
Y86166D01*
X212497Y85000D01*
X210164D01*
X208998Y86166D01*
X132665Y34832D02*
X131499Y35998D01*
X129166D01*
X128000Y34832D01*
Y30166D01*
X129166Y29000D01*
X131499D01*
X132665Y30166D01*
X139663Y29000D02*
X134998D01*
X139663Y33665D01*
Y34832D01*
X138497Y35998D01*
X136164D01*
X134998Y34832D01*
X164000Y31998D02*
Y26166D01*
X165166Y25000D01*
X167499D01*
X168665Y26166D01*
Y31998D01*
X170998Y25000D02*
X173330D01*
X172164D01*
Y31998D01*
X170998Y30831D01*
X144400Y61800D02*
X146733D01*
X145566D01*
Y68798D01*
X144400Y67632D01*
X100000Y99000D02*
Y105998D01*
X103499D01*
X104665Y104831D01*
Y102499D01*
X103499Y101333D01*
X100000D01*
X102333D02*
X104665Y99000D01*
X106998D02*
X109330D01*
X108164D01*
Y105998D01*
X106998Y104831D01*
X100000Y17998D02*
Y11000D01*
X103499D01*
X104665Y12166D01*
Y16832D01*
X103499Y17998D01*
X100000D01*
X106998Y11000D02*
X109330D01*
X108164D01*
Y17998D01*
X106998Y16832D01*
D33*
X27332Y45700D02*
G03*
X27332Y45700I-2032J0D01*
G01*
X329732Y80300D02*
G03*
X329732Y80300I-2032J0D01*
G01*
M02*
